{"title":"Star.Wars.Episode.VI.Return.of.the.Jedi.1983.BRRip.480.x264-VYTO","uid":12040694,"size":479599985,"categoryP":"video","categoryS":"movies","magnet":"?xt=urn:btih:fdecdda85004b6416e1cfd8331604c263720dda6&amp;dn=Star.Wars.Episode.VI.Return.of.the.Jedi.1983.BRRip.480.x264-VYTO&amp;tr=udp%3A%2F%2Ftracker.openbittorrent.com%3A80&amp;tr=udp%3A%2F%2Fopen.demonii.com%3A1337&amp;tr=udp%3A%2F%2Ftracker.coppersurfer.tk%3A6969&amp;tr=udp%3A%2F%2Fexodus.desync.com%3A6969","seeders":1,"leechers":0,"uploader":"ValidusVyto","files":7,"time":1434779787,"description":"Star.Wars.Episode.VI.Return.of.the.Jedi.1983.BRRip.480.x264-VYTO\n\n\nGenre:  Action, Adventure, Fantasy\nIMDb: http://www.imdb.com/title/tt0086190/\n\nFormat                         : MPEG-4\nFile size                      : 452 MiB\nDuration                       : 2h 14mn\nOverall bit rate               : 469 Kbps\n\nVideo\nFormat                         : AVC\nBit rate                       : 434 Kbps\nWidth                          : 720 pixels\nHeight                         : 304 pixels\nDisplay aspect ratio           : 2.35:1\nFrame rate mode                : Constant\nFrame rate                     : 23.976 fps\nBit depth                      : 8 bits\nStream size                    : 418 MiB (93%)\nWriting library                : x264 core 146 r2538 121396c\n\nAudio\nFormat                         : AAC\nBit rate mode                  : Variable\nBit rate                       : 32.0 Kbps\nChannel(s)                     : 2 channels\nChannel positions              : Front: L R\nSampling rate                  : 48.0 KHz\nStream size                    : 30.8 MiB (7%)\nLanguage                       : English\n\nSubtitle                    : Yes(English)\nSource                      : 720p.BluRay.X264-AMIABLE\n &lt;a href=&quot;\nhttp://someimage.com/j4OKA3A&quot; rel=&quot;nofollow&quot; target=&quot;_NEW&quot;&gt;\nhttp://someimage.com/j4OKA3A&lt;/a&gt; &lt;a href=&quot;\nhttp://someimage.com/kbUISMg&quot; rel=&quot;nofollow&quot; target=&quot;_NEW&quot;&gt;\nhttp://someimage.com/kbUISMg&lt;/a&gt; &lt;a href=&quot;\nhttp://someimage.com/cxjT43t&quot; rel=&quot;nofollow&quot; target=&quot;_NEW&quot;&gt;\nhttp://someimage.com/cxjT43t&lt;/a&gt; &lt;a href=&quot;\nhttp://someimage.com/DGUV7AC&quot; rel=&quot;nofollow&quot; target=&quot;_NEW&quot;&gt;\nhttp://someimage.com/DGUV7AC&lt;/a&gt; &lt;a href=&quot;\nhttp://someimage.com/EYjNRqn&quot; rel=&quot;nofollow&quot; target=&quot;_NEW&quot;&gt;\nhttp://someimage.com/EYjNRqn&lt;/a&gt; &lt;a href=&quot;\nhttp://someimage.com/1DfgxaS&quot; rel=&quot;nofollow&quot; target=&quot;_NEW&quot;&gt;\nhttp://someimage.com/1DfgxaS&lt;/a&gt; &lt;a href=&quot;\nhttp://someimage.com/k0xWw6c&quot; rel=&quot;nofollow&quot; target=&quot;_NEW&quot;&gt;\nhttp://someimage.com/k0xWw6c&lt;/a&gt; &lt;a href=&quot;\nhttp://someimage.com/yfXMRSj&quot; rel=&quot;nofollow&quot; target=&quot;_NEW&quot;&gt;\nhttp://someimage.com/yfXMRSj&lt;/a&gt; &lt;a href=&quot;\nhttp://someimage.com/8q8jatX&quot; rel=&quot;nofollow&quot; target=&quot;_NEW&quot;&gt;\nhttp://someimage.com/8q8jatX&lt;/a&gt;\n\n----------------------------------------------------------------------------------------------------\n\n\nEncoder Notes: Looking For Early Access To Anything You Can Provide DVDScr, R5, DVDR, BluRay, Direct\nAudio, Music Releases and Seedboxes. If You Got anything to offer please contact us.\n\nSupport us by donating BC - 1FgwdzPsd1y25Gea8wP1qni35uGCtmkRCD","torrent":{"xt":"urn:btih:fdecdda85004b6416e1cfd8331604c263720dda6","amp;dn":"Star.Wars.Episode.VI.Return.of.the.Jedi.1983.BRRip.480.x264-VYTO","amp;tr":["udp%3A%2F%2Ftracker.openbittorrent.com%3A80","udp%3A%2F%2Fopen.demonii.com%3A1337","udp%3A%2F%2Ftracker.coppersurfer.tk%3A6969","udp%3A%2F%2Fexodus.desync.com%3A6969"],"infoHash":"fdecdda85004b6416e1cfd8331604c263720dda6","infoHashBuffer":{"type":"Buffer","data":[253,236,221,168,80,4,182,65,110,28,253,131,49,96,76,38,55,32,221,166]},"announce":[],"urlList":[]}}